<svg width="40" height="40" viewBox="0 0 40 40" fill="none" xmlns="http://www.w3.org/2000/svg">
<circle cx="20" cy="20" r="20" fill="#525267"/>
<path fill-rule="evenodd" clip-rule="evenodd" d="M14.8954 16.3859H11.0664V28.7174H14.8954V16.3859ZM15.2086 12.4798C15.2086 11.2538 14.2122 10.2559 12.9881 10.2559C11.7568 10.2559 10.7676 11.2538 10.7676 12.4798C10.7676 13.7058 11.7568 14.7037 12.9881 14.7037C14.2122 14.7037 15.2086 13.7058 15.2086 12.4798ZM20.966 16.3859H17.3079V28.7174H21.1297V22.6158C21.1297 21.012 21.4287 19.451 23.4214 19.451C25.3857 19.451 25.4071 21.29 25.4071 22.7227V28.7174H29.2289V21.9601C29.2289 18.6384 28.5101 16.0866 24.6384 16.0866C22.7738 16.0866 21.5283 17.1059 21.0159 18.0753H20.966V16.3859Z" fill="white"/>
</svg>
