<svg width="108" height="160" viewBox="0 0 108 160" fill="none" xmlns="http://www.w3.org/2000/svg">
<path d="M5.86914 51.0172C5.86914 24.1399 27.4179 2.35156 53.9996 2.35156C80.5813 2.35156 102.13 24.1399 102.13 51.0172C102.13 67.9656 93.5614 82.8905 80.5654 91.6045C67.6417 100.27 53.9996 112.297 53.9996 127.857V131.763" stroke="#4662F5" stroke-width="4.69565"/>
<path d="M15.2598 51.7616C15.2598 30.5308 32.6039 11.7617 53.9989 11.7617C75.3939 11.7617 92.738 28.9727 92.738 50.2035C92.738 64.9538 84.969 75.5735 75.1293 82.5371V82.5371C60.3871 92.9702 44.6076 107.579 44.6076 125.64V131.761" stroke="#4662F5" stroke-width="4.69565"/>
<path d="M24.6523 51.7639C24.6523 35.3149 37.7918 21.1758 54.0002 21.1758C70.2085 21.1758 83.348 34.5104 83.348 50.9595C83.348 62.3877 76.7154 69.8981 69.261 75.2933V75.2933C53.01 87.0553 35.2176 103.321 35.2176 123.381V131.764" stroke="#4662F5" stroke-width="4.69565"/>
<path d="M54 141.174V159.997" stroke="#4662F5" stroke-width="4.69565"/>
<path d="M44.6074 141.174V159.997" stroke="#4662F5" stroke-width="4.69565"/>
<path d="M35.2168 141.174V159.997" stroke="#4662F5" stroke-width="4.69565"/>
</svg>
