<svg width="102" height="65" viewBox="0 0 102 65" fill="none" xmlns="http://www.w3.org/2000/svg">
<path fill-rule="evenodd" clip-rule="evenodd" d="M24.0833 62.8158C36.1639 62.8158 45.9571 53.1344 45.9571 41.1918C45.9571 29.7835 37.0198 20.4378 25.6899 19.6253L24.2187 19.5198L29.7253 4.94985L10.2763 23.6221C5.7764 28.0728 2.20945 34.2924 2.20945 41.1918C2.20945 53.1344 12.0027 62.8158 24.0833 62.8158ZM48.1666 41.1918C48.1666 54.3407 37.3842 65 24.0833 65C10.7824 65 -3.33896e-05 54.3407 -3.22268e-05 41.1918C-3.15502e-05 33.5406 3.94228 26.7947 8.71956 22.072L8.72528 22.0664L31.7097 3.67247e-05L33.5142 1.16573L27.3049 17.595C39.083 19.1519 48.1666 29.1227 48.1666 41.1918Z" fill="#4662F5"/>
<path d="M24.0843 58.4466C33.7314 58.4466 41.5392 50.7696 41.5392 41.315C41.5392 32.2833 34.414 24.8733 25.3671 24.2289C22.3167 24.0116 19.0025 24.591 17.6768 25.2463L20.478 22.4456C21.9624 22.0433 24.085 21.9477 25.5259 22.0503C35.7074 22.7755 43.7487 31.1171 43.7487 41.315C43.7487 51.9898 34.9376 60.6309 24.0843 60.6309C13.231 60.6309 4.41992 51.9898 4.41992 41.315C4.41992 35.098 7.51773 29.8551 11.5181 25.8304L11.5215 25.827L24.5262 12.7961L22.7458 17.8199L13.0941 27.3613L13.0905 27.3649C9.34372 31.1357 6.6294 35.8583 6.6294 41.315C6.6294 50.7696 14.4372 58.4466 24.0843 58.4466Z" fill="#4662F5"/>
<path fill-rule="evenodd" clip-rule="evenodd" d="M24.0833 54.0794C31.2829 54.0794 37.1193 48.3097 37.1193 41.1925C37.1193 34.0752 31.2829 28.3055 24.0833 28.3055C16.8838 28.3055 11.0474 34.0752 11.0474 41.1925C11.0474 48.3097 16.8838 54.0794 24.0833 54.0794ZM39.3287 41.1925C39.3287 49.5161 32.5031 56.2637 24.0833 56.2637C15.6635 56.2637 8.83792 49.5161 8.83792 41.1925C8.83792 32.8688 15.6635 26.1212 24.0833 26.1212C32.5031 26.1212 39.3287 32.8688 39.3287 41.1925Z" fill="#4662F5"/>
<path fill-rule="evenodd" clip-rule="evenodd" d="M24.0827 49.5813C28.7197 49.5813 32.4787 45.8652 32.4787 41.2812C32.4787 36.6972 28.7197 32.9811 24.0827 32.9811C19.4457 32.9811 15.6867 36.6972 15.6867 41.2812C15.6867 45.8652 19.4457 49.5813 24.0827 49.5813ZM24.0827 51.7655C29.9399 51.7655 34.6882 47.0715 34.6882 41.2812C34.6882 35.4909 29.9399 30.7969 24.0827 30.7969C18.2254 30.7969 13.4772 35.4909 13.4772 41.2812C13.4772 47.0715 18.2254 51.7655 24.0827 51.7655Z" fill="#4662F5"/>
<path fill-rule="evenodd" clip-rule="evenodd" d="M24.0836 45.2135C26.2801 45.2135 28.0607 43.4532 28.0607 41.2819C28.0607 39.1105 26.2801 37.3503 24.0836 37.3503C21.8872 37.3503 20.1066 39.1105 20.1066 41.2819C20.1066 43.4532 21.8872 45.2135 24.0836 45.2135ZM24.0836 47.3977C27.5004 47.3977 30.2702 44.6596 30.2702 41.2819C30.2702 37.9042 27.5004 35.166 24.0836 35.166C20.6669 35.166 17.8971 37.9042 17.8971 41.2819C17.8971 44.6596 20.6669 47.3977 24.0836 47.3977Z" fill="#4662F5"/>
<path fill-rule="evenodd" clip-rule="evenodd" d="M77.9153 62.8158C89.9959 62.8158 99.7892 53.1344 99.7892 41.1918C99.7892 29.7835 90.8518 20.4378 79.5219 19.6253L78.0507 19.5198L83.5574 4.94985L64.1083 23.6221C59.6084 28.0728 56.0415 34.2924 56.0415 41.1918C56.0415 53.1344 65.8347 62.8158 77.9153 62.8158ZM101.999 41.1918C101.999 54.3407 91.2162 65 77.9153 65C64.6145 65 53.832 54.3407 53.832 41.1918C53.832 33.5406 57.7743 26.7947 62.5516 22.072L62.5573 22.0664L85.5417 3.67247e-05L87.3462 1.16573L81.1369 17.595C92.915 19.1519 101.999 29.1227 101.999 41.1918Z" fill="#4662F5"/>
<path d="M77.9163 58.4466C87.5635 58.4466 95.3712 50.7696 95.3712 41.315C95.3712 32.2833 88.246 24.8733 79.1991 24.2289C76.1487 24.0116 72.8345 24.591 71.5088 25.2463L74.31 22.4456C75.7944 22.0433 77.917 21.9477 79.3579 22.0503C89.5394 22.7755 97.5807 31.1171 97.5807 41.315C97.5807 51.9898 88.7696 60.6309 77.9163 60.6309C67.0631 60.6309 58.252 51.9898 58.252 41.315C58.252 35.098 61.3498 29.8551 65.3501 25.8304L65.3535 25.827L78.3582 12.7961L76.5778 17.8199L66.9261 27.3613L66.9225 27.3649C63.1758 31.1357 60.4614 35.8583 60.4614 41.315C60.4614 50.7696 68.2692 58.4466 77.9163 58.4466Z" fill="#4662F5"/>
<path fill-rule="evenodd" clip-rule="evenodd" d="M77.9154 54.0794C85.1149 54.0794 90.9513 48.3097 90.9513 41.1925C90.9513 34.0752 85.1149 28.3055 77.9154 28.3055C70.7158 28.3055 64.8794 34.0752 64.8794 41.1925C64.8794 48.3097 70.7158 54.0794 77.9154 54.0794ZM93.1608 41.1925C93.1608 49.5161 86.3352 56.2637 77.9154 56.2637C69.4956 56.2637 62.6699 49.5161 62.6699 41.1925C62.67 32.8688 69.4956 26.1212 77.9154 26.1212C86.3352 26.1212 93.1608 32.8688 93.1608 41.1925Z" fill="#4662F5"/>
<path fill-rule="evenodd" clip-rule="evenodd" d="M77.9167 49.5813C82.5537 49.5813 86.3127 45.8652 86.3127 41.2812C86.3127 36.6972 82.5537 32.9811 77.9167 32.9811C73.2797 32.9811 69.5206 36.6972 69.5206 41.2812C69.5206 45.8652 73.2797 49.5813 77.9167 49.5813ZM77.9167 51.7655C83.7739 51.7655 88.5222 47.0715 88.5222 41.2812C88.5222 35.4909 83.7739 30.7969 77.9167 30.7969C72.0594 30.7969 67.3112 35.4909 67.3112 41.2812C67.3112 47.0715 72.0594 51.7655 77.9167 51.7655Z" fill="#4662F5"/>
<path fill-rule="evenodd" clip-rule="evenodd" d="M77.9157 45.2135C80.1121 45.2135 81.8927 43.4532 81.8927 41.2819C81.8927 39.1105 80.1121 37.3503 77.9157 37.3503C75.7192 37.3503 73.9386 39.1105 73.9386 41.2819C73.9386 43.4532 75.7192 45.2135 77.9157 45.2135ZM77.9157 47.3977C81.3324 47.3977 84.1022 44.6596 84.1022 41.2819C84.1022 37.9042 81.3324 35.166 77.9157 35.166C74.4989 35.166 71.7291 37.9042 71.7291 41.2819C71.7291 44.6596 74.4989 47.3977 77.9157 47.3977Z" fill="#4662F5"/>
</svg>
