<?xml version="1.0" standalone="no"?>
<!DOCTYPE svg PUBLIC "-//W3C//DTD SVG 20010904//EN"
 "http://www.w3.org/TR/2001/REC-SVG-20010904/DTD/svg10.dtd">
<svg version="1.0" xmlns="http://www.w3.org/2000/svg"
 width="700.000000pt" height="700.000000pt" viewBox="0 0 700.000000 700.000000"
 preserveAspectRatio="xMidYMid meet">
<metadata>
Created by potrace 1.14, written by Peter Selinger 2001-2017
</metadata>
<g transform="translate(0.000000,700.000000) scale(0.100000,-0.100000)"
fill="#000000" stroke="none">
<path d="M4080 4405 c-701 -702 -1292 -1288 -1314 -1302 -53 -38 -155 -45
-212 -15 -22 12 -219 201 -464 446 -234 234 -430 426 -435 426 -6 0 -63 -53
-128 -118 l-117 -118 452 -450 c372 -369 464 -456 513 -481 187 -97 409 -91
568 16 31 20 623 602 1356 1331 l1302 1295 -123 122 -123 123 -1275 -1275z"/>
<path d="M4765 4121 c-996 -995 -1561 -1553 -1600 -1578 -315 -210 -707 -217
-1010 -18 -36 24 -247 224 -524 498 l-464 459 -121 -121 -121 -121 435 -436
c424 -425 532 -523 655 -596 352 -211 819 -226 1190 -40 165 83 185 101 1180
1088 528 524 1231 1224 1563 1556 l602 603 -122 122 -123 123 -1540 -1539z"/>
<path d="M4790 3174 c-569 -569 -1071 -1066 -1115 -1103 -563 -479 -1371 -509
-1965 -73 -41 30 -288 266 -548 524 l-473 469 -117 -112 c-64 -62 -118 -117
-120 -123 -1 -6 210 -223 470 -482 474 -472 562 -550 733 -653 216 -131 465
-218 735 -257 170 -24 470 -15 637 20 307 65 589 197 821 384 82 65 2222 2190
2222 2206 0 9 -232 236 -242 236 -2 0 -469 -466 -1038 -1036z"/>
</g>
</svg>
