<svg width="186" height="45" viewBox="0 0 186 45" fill="none" xmlns="http://www.w3.org/2000/svg">
<path d="M86.1783 7.34228C85.9992 6.78848 85.7665 6.30615 85.4621 5.85954C85.1577 5.4308 84.8175 5.05565 84.4057 4.7341C83.9938 4.41254 83.5283 4.18031 83.0091 4.01953C82.4898 3.85875 81.9168 3.76943 81.2902 3.76943C80.2337 3.76943 79.2848 4.03739 78.4253 4.57332C77.5838 5.10925 76.9034 5.89527 76.4199 6.9314C75.9365 7.96752 75.6858 9.23588 75.6858 10.7186C75.6858 12.2013 75.9365 13.4876 76.4199 14.5237C76.9213 15.5598 77.5838 16.3458 78.4611 16.8818C79.3206 17.4177 80.3054 17.6857 81.3976 17.6857C82.4182 17.6857 83.3135 17.4892 84.0655 17.0783C84.8175 16.6674 85.4084 16.0957 85.8381 15.3455C86.2678 14.5952 86.4648 13.7019 86.4648 12.6837L87.1989 12.8266H81.8273V10.5221H89.2043V12.6301C89.2043 14.1843 88.8641 15.542 88.2016 16.6853C87.5391 17.8286 86.608 18.7039 85.4442 19.3292C84.2803 19.9544 82.9195 20.2581 81.4155 20.2581C79.7145 20.2581 78.2284 19.8651 76.9571 19.0969C75.6858 18.3288 74.6831 17.2212 73.9669 15.8099C73.2507 14.3986 72.8926 12.7015 72.8926 10.7543C72.8926 9.27161 73.1074 7.94966 73.5193 6.77062C73.9311 5.59158 74.522 4.59118 75.274 3.76943C76.026 2.94767 76.9213 2.32243 77.9419 1.87582C78.9625 1.42921 80.0905 1.21484 81.2902 1.21484C82.3108 1.21484 83.2418 1.35776 84.1192 1.66145C84.9965 1.96514 85.7844 2.37602 86.4648 2.91195C87.1452 3.44787 87.7182 4.09098 88.1658 4.84128C88.6134 5.59158 88.9178 6.41334 89.0789 7.30655H86.1783V7.34228Z" fill="#0D0D3F"/>
<path d="M103.027 6.35917C102.937 5.50169 102.525 4.84071 101.827 4.35838C101.129 3.87604 100.233 3.64381 99.1592 3.64381C98.3892 3.64381 97.7268 3.76886 97.1717 4.00109C96.6166 4.23333 96.169 4.57275 95.8646 4.98362C95.5602 5.3945 95.3991 5.85897 95.3991 6.3949C95.3991 6.8415 95.5065 7.21665 95.7214 7.53821C95.9362 7.85977 96.2048 8.12773 96.5629 8.3421C96.9031 8.55647 97.2791 8.73511 97.673 8.87803C98.067 9.02094 98.443 9.12813 98.819 9.23531L100.645 9.69978C101.236 9.8427 101.863 10.0392 102.49 10.2893C103.116 10.5394 103.707 10.861 104.244 11.2718C104.781 11.6827 105.211 12.1829 105.551 12.7724C105.892 13.3619 106.053 14.0765 106.053 14.9161C106.053 15.9701 105.784 16.8991 105.229 17.703C104.674 18.5247 103.886 19.15 102.866 19.6323C101.827 20.0968 100.574 20.329 99.1234 20.329C97.673 20.329 96.5092 20.1146 95.4886 19.668C94.468 19.2214 93.6623 18.5962 93.0714 17.7923C92.4984 16.9884 92.1761 16.0237 92.1045 14.8983H94.9335C94.9872 15.5771 95.2021 16.1309 95.596 16.5596C95.9899 17.0063 96.4734 17.3278 97.0822 17.5422C97.6909 17.7565 98.3534 17.8637 99.0876 17.8637C99.8933 17.8637 100.592 17.7387 101.218 17.4886C101.845 17.2385 102.328 16.8991 102.704 16.4346C103.063 15.988 103.242 15.4521 103.242 14.8625C103.242 14.3088 103.08 13.8621 102.776 13.5227C102.454 13.1654 102.042 12.8796 101.505 12.6474C100.968 12.4151 100.359 12.2186 99.6963 12.04L97.4761 11.4505C95.972 11.0396 94.7903 10.4501 93.9129 9.66405C93.0356 8.87803 92.6058 7.8419 92.6058 6.55568C92.6058 5.48382 92.8923 4.55488 93.4832 3.76886C94.0741 2.98283 94.8619 2.35758 95.8646 1.91098C96.8673 1.46437 97.9953 1.25 99.2487 1.25C100.502 1.25 101.648 1.46437 102.615 1.91098C103.582 2.35758 104.352 2.9471 104.925 3.73313C105.48 4.50129 105.784 5.37664 105.802 6.37703H103.08L103.027 6.35917Z" fill="#0D0D3F"/>
<path d="M115.972 20.0073H109.902V1.5H116.169C118.013 1.5 119.589 1.87515 120.896 2.60758C122.203 3.34002 123.224 4.41187 123.922 5.78742C124.62 7.16296 124.979 8.80647 124.979 10.7358C124.979 12.6651 124.62 14.3265 123.904 15.7021C123.188 17.0955 122.167 18.1495 120.825 18.8998C119.482 19.6501 117.852 20.0073 115.954 20.0073H115.972ZM112.731 17.5599H115.811C117.244 17.5599 118.425 17.292 119.374 16.7561C120.323 16.2201 121.022 15.452 121.505 14.4337C121.97 13.4154 122.203 12.1828 122.203 10.7179C122.203 9.25308 121.97 8.03831 121.505 7.02005C121.039 6.00179 120.341 5.23362 119.428 4.71556C118.515 4.1975 117.369 3.92954 115.99 3.92954H112.731V17.5599Z" fill="#0D0D3F"/>
<path d="M84.5307 29.4581C84.4233 28.547 83.9935 27.8324 83.2415 27.3322C82.4895 26.832 81.5405 26.5819 80.3946 26.5819C79.5709 26.5819 78.8726 26.707 78.2638 26.9571C77.673 27.2072 77.2074 27.5645 76.8672 27.9932C76.5449 28.4398 76.3659 28.94 76.3659 29.4938C76.3659 29.9583 76.4733 30.3691 76.7061 30.7086C76.9389 31.048 77.2253 31.3338 77.6013 31.566C77.9774 31.7983 78.3713 31.9769 78.7831 32.1377C79.2128 32.2806 79.6067 32.4057 80.0007 32.5129L81.9523 33.0131C82.5969 33.1738 83.2415 33.3703 83.9219 33.6383C84.6023 33.9063 85.2111 34.2457 85.7841 34.6744C86.357 35.1032 86.8226 35.6391 87.1807 36.2822C87.5388 36.9253 87.7178 37.6756 87.7178 38.5688C87.7178 39.6943 87.4313 40.6768 86.8405 41.5522C86.2496 42.4275 85.408 43.1063 84.3158 43.6065C83.2057 44.1067 81.8807 44.3568 80.3229 44.3568C78.7652 44.3568 77.5297 44.1246 76.4375 43.6601C75.3453 43.1957 74.4858 42.5168 73.877 41.6593C73.2504 40.8019 72.9102 39.7657 72.8564 38.5867H75.8824C75.9362 39.3013 76.1689 39.8908 76.5986 40.3731C77.0284 40.8554 77.5476 41.1949 78.1922 41.4271C78.8368 41.6593 79.553 41.7665 80.3229 41.7665C81.1824 41.7665 81.9344 41.6236 82.5969 41.3735C83.2594 41.1055 83.7966 40.7304 84.1726 40.2481C84.5486 39.7657 84.7456 39.2119 84.7456 38.5688C84.7456 37.9793 84.5844 37.497 84.2442 37.1397C83.904 36.7645 83.4564 36.4608 82.8834 36.2108C82.3104 35.9607 81.6658 35.7463 80.9496 35.5676L78.5861 34.9245C76.9926 34.4958 75.7213 33.8527 74.7902 33.0309C73.8591 32.1913 73.3936 31.0837 73.3936 29.7082C73.3936 28.5649 73.698 27.5823 74.3247 26.7248C74.9514 25.8852 75.7929 25.2242 76.8672 24.7419C77.9415 24.2596 79.1412 24.0273 80.4841 24.0273C81.827 24.0273 83.0266 24.2596 84.0652 24.724C85.1037 25.1885 85.9273 25.8316 86.5182 26.6534C87.109 27.4751 87.4313 28.4219 87.4492 29.4759H84.5307V29.4581Z" fill="#0D0D3F"/>
<path d="M96.6172 44.3214C95.2027 44.3214 93.9851 43.9998 92.9287 43.3746C91.8723 42.7493 91.0665 41.8561 90.4936 40.6949C89.9206 39.5516 89.6162 38.2118 89.6162 36.6755C89.6162 35.1392 89.9027 33.7993 90.4936 32.6382C91.0665 31.4948 91.8902 30.6016 92.9287 29.9585C93.9672 29.3154 95.2027 29.0117 96.6172 29.0117C98.0317 29.0117 99.2493 29.3333 100.306 29.9585C101.362 30.5838 102.168 31.4948 102.741 32.6382C103.314 33.7815 103.618 35.1392 103.618 36.6755C103.618 38.2118 103.332 39.5516 102.741 40.6949C102.168 41.8382 101.344 42.7314 100.306 43.3746C99.2672 44.0177 98.0317 44.3214 96.6172 44.3214ZM96.6172 41.9097C97.5303 41.9097 98.2824 41.6775 98.8911 41.1951C99.482 40.7128 99.9297 40.0875 100.216 39.3015C100.503 38.5155 100.646 37.6401 100.646 36.6933C100.646 35.7465 100.503 34.8712 100.216 34.0852C99.9297 33.2991 99.482 32.656 98.8911 32.1737C98.3003 31.6914 97.5303 31.4413 96.6172 31.4413C95.704 31.4413 94.9341 31.6735 94.3432 32.1737C93.7344 32.656 93.2868 33.2991 93.0003 34.0852C92.7138 34.8891 92.5706 35.7465 92.5706 36.6933C92.5706 37.6401 92.7138 38.5155 93.0003 39.3015C93.2868 40.0875 93.7344 40.7307 94.3432 41.1951C94.952 41.6775 95.704 41.9097 96.6172 41.9097Z" fill="#0D0D3F"/>
<path d="M109.025 24.2598V44.0176H106.106V24.2598H109.025Z" fill="#0D0D3F"/>
<path d="M121.72 37.8715V29.2073H124.657V44.0168H121.792V41.4443H121.631C121.291 42.2303 120.735 42.8913 119.983 43.4094C119.231 43.9274 118.282 44.1954 117.154 44.1954C116.188 44.1954 115.346 43.981 114.594 43.5702C113.86 43.1414 113.269 42.534 112.857 41.6944C112.445 40.8727 112.23 39.8365 112.23 38.6218V29.1895H115.149V38.2645C115.149 39.2827 115.436 40.0866 115.991 40.6762C116.564 41.2657 117.298 41.5694 118.193 41.5694C118.748 41.5694 119.285 41.4265 119.822 41.1585C120.359 40.8905 120.825 40.4796 121.183 39.9259C121.541 39.3721 121.72 38.6932 121.72 37.8357V37.8715Z" fill="#0D0D3F"/>
<path d="M134.88 29.2076V31.53H126.68V29.2076H134.88ZM128.882 25.6526H131.801V39.6582C131.801 40.212 131.89 40.6407 132.051 40.9265C132.212 41.2124 132.445 41.391 132.714 41.4982C132.982 41.6054 133.287 41.6411 133.591 41.6411C133.824 41.6411 134.039 41.6411 134.2 41.5875C134.379 41.5518 134.504 41.5339 134.612 41.5161L135.131 43.892C134.97 43.9635 134.719 44.0171 134.415 44.0885C134.11 44.16 133.716 44.1957 133.251 44.1957C132.481 44.1957 131.765 44.0707 131.102 43.7848C130.44 43.499 129.903 43.0703 129.491 42.4807C129.079 41.8912 128.882 41.1409 128.882 40.2477V25.6348V25.6526Z" fill="#0D0D3F"/>
<path d="M138.891 26.9221C138.39 26.9221 137.942 26.7613 137.584 26.4219C137.226 26.0825 137.047 25.6716 137.047 25.2072C137.047 24.7427 137.226 24.3318 137.584 23.9924C137.942 23.653 138.372 23.4922 138.891 23.4922C139.41 23.4922 139.84 23.653 140.198 23.9924C140.556 24.3318 140.735 24.7427 140.735 25.2072C140.735 25.6716 140.556 26.0825 140.198 26.4219C139.84 26.7613 139.41 26.9221 138.891 26.9221ZM137.423 44.0182V29.2087H140.341V44.0182H137.423Z" fill="#0D0D3F"/>
<path d="M149.831 44.3214C148.417 44.3214 147.199 43.9998 146.143 43.3746C145.086 42.7493 144.28 41.8561 143.707 40.6949C143.134 39.5516 142.83 38.2118 142.83 36.6755C142.83 35.1392 143.117 33.7993 143.707 32.6382C144.28 31.4948 145.104 30.6016 146.143 29.9585C147.181 29.3154 148.417 29.0117 149.831 29.0117C151.246 29.0117 152.463 29.3333 153.52 29.9585C154.576 30.5838 155.382 31.4948 155.955 32.6382C156.528 33.7815 156.832 35.1392 156.832 36.6755C156.832 38.2118 156.546 39.5516 155.955 40.6949C155.382 41.8382 154.558 42.7314 153.52 43.3746C152.481 44.0177 151.246 44.3214 149.831 44.3214ZM149.831 41.9097C150.744 41.9097 151.496 41.6775 152.105 41.1951C152.696 40.7128 153.144 40.0875 153.43 39.3015C153.716 38.5155 153.86 37.6401 153.86 36.6933C153.86 35.7465 153.716 34.8712 153.43 34.0852C153.144 33.2991 152.696 32.656 152.105 32.1737C151.514 31.6914 150.744 31.4413 149.831 31.4413C148.918 31.4413 148.148 31.6735 147.557 32.1737C146.948 32.656 146.501 33.2991 146.214 34.0852C145.928 34.8891 145.784 35.7465 145.784 36.6933C145.784 37.6401 145.928 38.5155 146.214 39.3015C146.501 40.0875 146.948 40.7307 147.557 41.1951C148.166 41.6775 148.918 41.9097 149.831 41.9097Z" fill="#0D0D3F"/>
<path d="M162.006 35.2285V44.0177H159.088V29.2082H161.899V31.6199H162.078C162.418 30.8339 162.973 30.2086 163.707 29.7263C164.442 29.244 165.373 29.0117 166.501 29.0117C167.521 29.0117 168.417 29.2261 169.186 29.637C169.956 30.0657 170.547 30.691 170.977 31.5127C171.407 32.3345 171.604 33.3706 171.604 34.5854V44.0177H168.685V34.9426C168.685 33.8708 168.399 33.0312 167.844 32.4238C167.271 31.8164 166.501 31.5127 165.516 31.5127C164.835 31.5127 164.245 31.6556 163.707 31.9415C163.188 32.2273 162.776 32.656 162.472 33.2098C162.168 33.7636 162.024 34.4424 162.024 35.2106L162.006 35.2285Z" fill="#0D0D3F"/>
<path d="M185.732 32.8159L183.082 33.2804C182.974 32.941 182.795 32.6194 182.563 32.3336C182.33 32.0478 182.008 31.7798 181.596 31.5833C181.184 31.3868 180.683 31.2975 180.074 31.2975C179.25 31.2975 178.552 31.4761 177.997 31.8513C177.442 32.2086 177.173 32.673 177.173 33.2625C177.173 33.7627 177.352 34.1558 177.728 34.4595C178.104 34.7631 178.695 35.0132 179.519 35.2097L181.9 35.7457C183.279 36.0672 184.317 36.5496 184.98 37.2105C185.642 37.8715 186 38.7111 186 39.7651C186 40.6583 185.75 41.4444 185.231 42.1411C184.711 42.8378 183.995 43.3737 183.064 43.7667C182.133 44.1597 181.077 44.3562 179.859 44.3562C178.176 44.3562 176.815 43.9989 175.741 43.2844C174.684 42.5698 174.022 41.5694 173.789 40.2475L176.618 39.8187C176.797 40.5512 177.155 41.0871 177.71 41.4622C178.265 41.8374 178.964 42.016 179.841 42.016C180.79 42.016 181.56 41.8195 182.133 41.4265C182.706 41.0335 182.992 40.5512 182.992 39.9795C182.992 39.515 182.813 39.122 182.473 38.8183C182.133 38.4968 181.596 38.2645 180.88 38.1038L178.337 37.55C176.94 37.2284 175.902 36.7282 175.239 36.0494C174.577 35.3527 174.237 34.4952 174.237 33.4412C174.237 32.5658 174.487 31.7977 174.971 31.1546C175.454 30.5115 176.153 29.9934 177.03 29.6182C177.907 29.2431 178.91 29.0645 180.02 29.0645C181.649 29.0645 182.921 29.4039 183.852 30.1006C184.783 30.7973 185.392 31.7084 185.696 32.8695L185.732 32.8159Z" fill="#0D0D3F"/>
<path d="M22.8827 30.7086C21.3965 30.7086 19.9283 30.1548 18.8003 29.0294L10.0625 20.3116L12.5871 17.7928L21.3249 26.5105C22.1844 27.368 23.5989 27.368 24.4583 26.5105L51.0298 0L53.5544 2.51886L26.9651 29.0472C25.837 30.1727 24.3509 30.7265 22.8827 30.7265V30.7086Z" fill="#4662F5"/>
<path d="M22.8828 37.8369C19.5703 37.8369 16.2758 36.5864 13.7511 34.0676L5.03125 25.3677L7.55589 22.8488L16.2758 31.5487C19.9284 35.193 25.8551 35.193 29.5078 31.5487L60.9136 0.214844L63.4383 2.7337L32.0145 34.0854C29.4899 36.6043 26.1953 37.8548 22.8828 37.8548V37.8369Z" fill="#4662F5"/>
<path d="M22.8829 45.0007C17.7799 45.0007 12.6948 43.0713 8.8094 39.1948L0 30.4056L2.52464 27.8867L11.334 36.6759C17.7083 43.0356 28.0755 43.0356 34.4497 36.6759L55.9719 15.2031L58.4965 17.722L36.9744 39.1948C33.0889 43.0713 28.0039 45.0007 22.9008 45.0007H22.8829Z" fill="#4662F5"/>
</svg>
