<?xml version="1.0" encoding="utf-8"?>
<!-- Generator: Adobe Illustrator 28.1.0, SVG Export Plug-In . SVG Version: 6.00 Build 0)  -->
<svg version="1.1" id="Layer_1" xmlns="http://www.w3.org/2000/svg" xmlns:xlink="http://www.w3.org/1999/xlink" x="0px" y="0px"
	 viewBox="0 0 186 45" style="enable-background:new 0 0 186 45;" xml:space="preserve">
<style type="text/css">
	.st0{fill:#0D0D3F;}
	.st1{fill:#FF0000;stroke:#EEEEEE;stroke-width:9;stroke-dasharray:103,191;stroke-dashoffset:21;}
</style>
<path class="st0" d="M86.2,7.3c-0.2-0.6-0.4-1-0.7-1.5c-0.3-0.4-0.6-0.8-1.1-1.1C84,4.4,83.5,4.2,83,4c-0.5-0.2-1.1-0.3-1.7-0.3
	c-1.1,0-2,0.3-2.9,0.8c-0.8,0.5-1.5,1.3-2,2.4c-0.5,1-0.7,2.3-0.7,3.8s0.3,2.8,0.7,3.8c0.5,1,1.2,1.8,2,2.4c0.9,0.5,1.8,0.8,2.9,0.8
	c1,0,1.9-0.2,2.7-0.6s1.3-1,1.8-1.7c0.4-0.8,0.6-1.6,0.6-2.7l0.7,0.1h-5.4v-2.3h7.4v2.1c0,1.6-0.3,2.9-1,4.1c-0.7,1.1-1.6,2-2.8,2.6
	c-1.2,0.6-2.5,0.9-4,0.9c-1.7,0-3.2-0.4-4.5-1.2c-1.3-0.8-2.3-1.9-3-3.3s-1.1-3.1-1.1-5.1c0-1.5,0.2-2.8,0.6-4s1-2.2,1.8-3
	s1.6-1.4,2.7-1.9S79.9,1,81.1,1c1,0,2,0.1,2.8,0.4c1.1,0.6,1.9,1,2.6,1.5s1.3,1.2,1.7,1.9s0.8,1.6,0.9,2.5H86.2L86.2,7.3z"/>
<path class="st0" d="M103,6.4c-0.1-0.9-0.5-1.5-1.2-2s-1.6-0.7-2.7-0.7c-0.8,0-1.4,0.1-2,0.4c-0.6,0.2-1,0.6-1.3,1S95.3,6,95.3,6.5
	c0,0.4,0.1,0.8,0.3,1.1c0.2,0.3,0.5,0.6,0.8,0.8s0.7,0.4,1.1,0.5s0.8,0.3,1.1,0.4l1.8,0.5c0.6,0.1,1.2,0.3,1.8,0.6
	c0.6,0.3,1.2,0.6,1.8,1c0.5,0.4,1,0.9,1.3,1.5s0.5,1.3,0.5,2.1c0,1.1-0.3,2-0.8,2.8c-0.6,0.8-1.3,1.4-2.4,1.9
	c-1,0.5-2.3,0.7-3.7,0.7c-1.5,0-2.6-0.2-3.6-0.7s-1.8-1.1-2.4-1.9s-0.9-1.8-1-2.9h2.8c0.1,0.7,0.3,1.2,0.7,1.7
	c0.4,0.4,0.9,0.8,1.5,1s1.3,0.3,2,0.3c0.8,0,1.5-0.1,2.1-0.4s1.1-0.6,1.5-1.1c0.4-0.4,0.5-1,0.5-1.6s-0.2-1-0.5-1.3
	c-0.3-0.4-0.7-0.6-1.3-0.9c-0.5-0.2-1.1-0.4-1.8-0.6l-2.2-0.6c-1.5-0.4-2.7-1-3.6-1.8s-1.3-1.8-1.3-3.1c0-1.1,0.3-2,0.9-2.8
	s1.4-1.4,2.4-1.9c1-0.4,2.1-0.7,3.4-0.7s2.4,0.2,3.4,0.7c1,0.4,1.7,1,2.3,1.8c0.6,0.8,0.9,1.6,0.9,2.6L103,6.4L103,6.4z"/>
<path class="st0" d="M116,20h-6.1V1.5h6.3c1.8,0,3.4,0.4,4.7,1.1c1.3,0.7,2.3,1.8,3,3.2s1.1,3,1.1,4.9s-0.4,3.6-1.1,5
	s-1.7,2.4-3.1,3.2C119.5,19.7,117.9,20,116,20L116,20z M112.7,17.6h3.1c1.4,0,2.6-0.3,3.6-0.8c0.9-0.5,1.6-1.3,2.1-2.3
	s0.7-2.3,0.7-3.7c0-1.5-0.2-2.7-0.7-3.7s-1.2-1.8-2.1-2.3S117.3,4,116,4h-3.3V17.6z"/>
<path class="st0" d="M84.5,29.5c-0.1-0.9-0.5-1.6-1.3-2.1s-1.7-0.8-2.8-0.8c-0.8,0-1.5,0.1-2.1,0.4s-1.1,0.6-1.4,1s-0.5,0.9-0.5,1.5
	c0,0.5,0.1,0.9,0.3,1.2c0.2,0.3,0.5,0.6,0.9,0.9c0.4,0.2,0.8,0.4,1.2,0.6c0.4,0.1,0.8,0.3,1.2,0.4l2,0.5c0.6,0.2,1.3,0.4,2,0.6
	c0.7,0.3,1.3,0.6,1.9,1s1,1,1.4,1.6s0.5,1.4,0.5,2.3c0,1.1-0.3,2.1-0.9,3s-1.4,1.6-2.5,2.1s-2.4,0.8-4,0.8s-2.8-0.2-3.9-0.7
	s-2-1.1-2.6-2s-1-1.9-1-3.1h3c0.1,0.7,0.3,1.3,0.7,1.8c0.4,0.5,0.9,0.8,1.6,1.1s1.4,0.3,2.1,0.3c0.9,0,1.6-0.1,2.3-0.4
	c0.7-0.3,1.2-0.6,1.6-1.1s0.6-1,0.6-1.7c0-0.6-0.2-1.1-0.5-1.4c-0.3-0.4-0.8-0.7-1.4-0.9c-0.6-0.3-1.2-0.5-1.9-0.6l-2.4-0.6
	c-1.6-0.4-2.9-1.1-3.8-1.9c-0.9-0.8-1.4-1.9-1.4-3.3c0-1.1,0.3-2.1,0.9-3c0.6-0.8,1.5-1.5,2.5-2c1.1-0.5,2.3-0.7,3.6-0.7
	s2.5,0.2,3.6,0.7c1,0.5,1.9,1.1,2.5,1.9s0.9,1.8,0.9,2.8L84.5,29.5L84.5,29.5z"/>
<path class="st0" d="M96.6,44.3c-1.4,0-2.6-0.3-3.7-0.9c-1.1-0.6-1.9-1.5-2.4-2.7c-0.6-1.1-0.9-2.5-0.9-4s0.3-2.9,0.9-4
	c0.6-1.1,1.4-2,2.4-2.7c1-0.6,2.3-0.9,3.7-0.9c1.4,0,2.6,0.3,3.7,0.9s1.9,1.5,2.4,2.7c0.6,1.1,0.9,2.5,0.9,4s-0.3,2.9-0.9,4
	s-1.4,2-2.4,2.7C99.3,44,98,44.3,96.6,44.3z M96.6,41.9c0.9,0,1.7-0.2,2.3-0.7c0.6-0.5,1-1.1,1.3-1.9c0.3-0.8,0.4-1.7,0.4-2.6
	s-0.1-1.8-0.4-2.6s-0.7-1.4-1.3-1.9c-0.6-0.5-1.4-0.7-2.3-0.7s-1.7,0.2-2.3,0.7c-0.6,0.5-1.1,1.1-1.3,1.9c-0.3,0.8-0.4,1.7-0.4,2.6
	s0.1,1.8,0.4,2.6s0.7,1.4,1.3,1.9C95,41.7,95.7,41.9,96.6,41.9z"/>
<path class="st0" d="M109,24.3V44h-2.9V24.3H109z"/>
<path class="st0" d="M121.7,37.9v-8.7h2.9V44h-2.9v-2.6h-0.2c-0.3,0.8-0.9,1.4-1.6,2c-0.8,0.5-1.7,0.8-2.8,0.8c-1,0-1.8-0.2-2.6-0.6
	c-0.7-0.4-1.3-1-1.7-1.9c-0.4-0.8-0.6-1.9-0.6-3.1v-9.4h2.9v9.1c0,1,0.3,1.8,0.8,2.4c0.6,0.6,1.3,0.9,2.2,0.9c0.6,0,1.1-0.1,1.6-0.4
	c0.5-0.3,1-0.7,1.4-1.2C121.5,39.4,121.7,38.7,121.7,37.9L121.7,37.9z"/>
<path class="st0" d="M134.9,29.2v2.3h-8.2v-2.3H134.9z M128.9,25.7h2.9v14c0,0.6,0.1,1,0.2,1.3c0.2,0.3,0.4,0.5,0.7,0.6
	s0.6,0.1,0.9,0.1c0.2,0,0.4,0,0.6-0.1c0.2,0,0.3-0.1,0.4-0.1l0.5,2.4c-0.2,0.1-0.4,0.1-0.7,0.2c-0.3,0.1-0.7,0.1-1.2,0.1
	c-0.8,0-1.5-0.1-2.1-0.4c-0.7-0.3-1.2-0.7-1.6-1.3c-0.4-0.6-0.6-1.3-0.6-2.2L128.9,25.7L128.9,25.7z"/>
<path class="st0" d="M138.9,26.9c-0.5,0-0.9-0.2-1.3-0.5s-0.5-0.8-0.5-1.2c0-0.5,0.2-0.9,0.5-1.2c0.4-0.3,0.8-0.5,1.3-0.5
	s0.9,0.2,1.3,0.5c0.4,0.3,0.5,0.8,0.5,1.2c0,0.5-0.2,0.9-0.5,1.2S139.4,26.9,138.9,26.9z M137.4,44V29.2h2.9V44H137.4z"/>
<path class="st0" d="M149.8,44.3c-1.4,0-2.6-0.3-3.7-0.9c-1.1-0.6-1.9-1.5-2.4-2.7c-0.6-1.1-0.9-2.5-0.9-4s0.3-2.9,0.9-4
	c0.6-1.1,1.4-2,2.4-2.7c1-0.6,2.3-0.9,3.7-0.9s2.6,0.3,3.7,0.9c1.1,0.6,1.9,1.5,2.4,2.7c0.6,1.1,0.9,2.5,0.9,4s-0.3,2.9-0.9,4
	c-0.6,1.1-1.4,2-2.4,2.7C152.5,44,151.2,44.3,149.8,44.3z M149.8,41.9c0.9,0,1.7-0.2,2.3-0.7s1-1.1,1.3-1.9c0.3-0.8,0.4-1.7,0.4-2.6
	s-0.1-1.8-0.4-2.6c-0.3-0.8-0.7-1.4-1.3-1.9s-1.4-0.7-2.3-0.7c-0.9,0-1.7,0.2-2.3,0.7s-1.1,1.1-1.3,1.9c-0.3,0.8-0.4,1.7-0.4,2.6
	s0.1,1.8,0.4,2.6c0.3,0.8,0.7,1.4,1.3,1.9C148.2,41.7,148.9,41.9,149.8,41.9z"/>
<path class="st0" d="M162,35.2V44h-2.9V29.2h2.8v2.4h0.2c0.3-0.8,0.9-1.4,1.6-1.9c0.7-0.5,1.7-0.7,2.8-0.7c1,0,1.9,0.2,2.7,0.6
	s1.4,1.1,1.8,1.9c0.4,0.8,0.6,1.9,0.6,3.1V44h-2.9v-9.1c0-1.1-0.3-1.9-0.8-2.5c-0.6-0.6-1.3-0.9-2.3-0.9c-0.7,0-1.3,0.1-1.8,0.4
	s-0.9,0.7-1.2,1.3C162.2,33.8,162,34.4,162,35.2L162,35.2z"/>
<path class="st0" d="M185.7,32.8l-2.6,0.5c-0.1-0.3-0.3-0.7-0.5-0.9c-0.2-0.3-0.6-0.6-1-0.8c-0.4-0.2-0.9-0.3-1.5-0.3
	c-0.8,0-1.5,0.2-2.1,0.6s-0.8,0.8-0.8,1.4c0,0.5,0.2,0.9,0.6,1.2c0.4,0.3,1,0.6,1.8,0.8l2.4,0.5c1.4,0.3,2.4,0.8,3.1,1.5
	c0.7,0.7,1,1.5,1,2.6c0,0.9-0.2,1.7-0.8,2.4c-0.5,0.7-1.2,1.2-2.2,1.6c-0.9,0.4-2,0.6-3.2,0.6c-1.7,0-3-0.4-4.1-1.1
	c-1.1-0.7-1.7-1.7-2-3l2.8-0.4c0.2,0.7,0.5,1.3,1.1,1.6c0.6,0.4,1.3,0.6,2.1,0.6c0.9,0,1.7-0.2,2.3-0.6c0.6-0.4,0.9-0.9,0.9-1.4
	s-0.2-0.9-0.5-1.2s-0.9-0.6-1.6-0.7l-2.5-0.6c-1.4-0.3-2.4-0.8-3.1-1.5c-0.7-0.7-1-1.6-1-2.6c0-0.9,0.2-1.6,0.7-2.3
	c0.5-0.6,1.2-1.2,2.1-1.5c0.9-0.4,1.9-0.6,3-0.6c1.6,0,2.9,0.3,3.8,1C184.8,30.8,185.4,31.7,185.7,32.8L185.7,32.8z"/>
<path class="st1" d="M51,0l2.6,2.5L27,29c-1.1,1.1-2.6,1.7-4.1,1.7l0,0c-1.5,0-3-0.6-4.1-1.7l-8.7-8.7l2.6-2.5l8.7,8.7
	c0.8,0.9,2.2,0.9,3.1,0L51,0z"/>
<path class="st1" d="M60.9,0.2l2.5,2.5L31.9,34.1c-2.5,2.5-5.8,3.8-9.1,3.8l0,0c-3.3,0-6.6-1.3-9.1-3.8L5,25.4l2.6-2.6l8.7,8.7
	c3.6,3.6,9.5,3.6,13.2,0L60.9,0.2z"/>
<path class="st1" d="M56,15.2l2.5,2.5L37,39.2c-3.9,3.9-9,5.8-14.1,5.8l0,0c-5.1,0-10.2-1.9-14.1-5.8L0,30.4l2.5-2.5l8.8,8.8
	c6.4,6.4,16.7,6.4,23.1,0L56,15.2z"/>
</svg>
