<?xml version="1.0" encoding="UTF-8"?>
<svg id="Layer_1" data-name="Layer 1" xmlns="http://www.w3.org/2000/svg" width="35.98mm" height="22.93mm" viewBox="0 0 102 65">
  <g>
    <path d="M24.08,62.82c12.08,0,21.87-9.68,21.87-21.62s-8.94-20.75-20.27-21.57l-1.47-.11,5.51-14.57L10.28,23.62c-4.5,4.45-8.07,10.67-8.07,17.57,0,11.94,9.79,21.62,21.87,21.62ZM48.17,41.19c0,13.15-10.78,23.81-24.08,23.81S0,54.34,0,41.19c0-7.65,3.94-14.4,8.72-19.12h0S31.71,0,31.71,0l1.8,1.17-6.21,16.43c11.78,1.56,20.86,11.53,20.86,23.6Z" style="fill: #4662f5; fill-rule: evenodd; stroke-width: 0px;"/>
    <path d="M24.08,58.45c9.65,0,17.45-7.68,17.45-17.13s-7.13-16.44-16.17-17.09c-3.05-.22-6.36.36-7.69,1.02l2.8-2.8c1.48-.4,3.61-.5,5.05-.4,10.18.73,18.22,9.07,18.22,19.26s-8.81,19.32-19.66,19.32S4.42,51.99,4.42,41.31c0-6.22,3.1-11.46,7.1-15.48h0s13-13.03,13-13.03l-1.78,5.02-9.65,9.54h0c-3.75,3.77-6.46,8.5-6.46,13.95,0,9.45,7.81,17.13,17.45,17.13Z" style="fill: #4662f5; stroke-width: 0px;"/>
    <path d="M24.08,54.08c7.2,0,13.04-5.77,13.04-12.89s-5.84-12.89-13.04-12.89-13.04,5.77-13.04,12.89,5.84,12.89,13.04,12.89ZM39.33,41.19c0,8.32-6.83,15.07-15.25,15.07s-15.25-6.75-15.25-15.07,6.83-15.07,15.25-15.07,15.25,6.75,15.25,15.07Z" style="fill: #4662f5; fill-rule: evenodd; stroke-width: 0px;"/>
    <path d="M24.08,49.58c4.64,0,8.4-3.72,8.4-8.3s-3.76-8.3-8.4-8.3-8.4,3.72-8.4,8.3,3.76,8.3,8.4,8.3ZM24.08,51.77c5.86,0,10.61-4.69,10.61-10.48s-4.75-10.48-10.61-10.48-10.61,4.69-10.61,10.48,4.75,10.48,10.61,10.48Z" style="fill: #4662f5; fill-rule: evenodd; stroke-width: 0px;"/>
    <path d="M24.08,45.21c2.2,0,3.98-1.76,3.98-3.93s-1.78-3.93-3.98-3.93-3.98,1.76-3.98,3.93,1.78,3.93,3.98,3.93ZM24.08,47.4c3.42,0,6.19-2.74,6.19-6.12s-2.77-6.12-6.19-6.12-6.19,2.74-6.19,6.12,2.77,6.12,6.19,6.12Z" style="fill: #4662f5; fill-rule: evenodd; stroke-width: 0px;"/>
  </g>
  <g>
    <path d="M77.92,62.82c12.08,0,21.87-9.68,21.87-21.62s-8.94-20.75-20.27-21.57l-1.47-.11,5.51-14.57-19.45,18.67c-4.5,4.45-8.07,10.67-8.07,17.57,0,11.94,9.79,21.62,21.87,21.62ZM102,41.19c0,13.15-10.78,23.81-24.08,23.81s-24.08-10.66-24.08-23.81c0-7.65,3.94-14.4,8.72-19.12h0S85.54,0,85.54,0l1.8,1.17-6.21,16.43c11.78,1.56,20.86,11.53,20.86,23.6Z" style="fill: #4662f5; fill-rule: evenodd; stroke-width: 0px;"/>
    <path d="M77.92,58.45c9.65,0,17.45-7.68,17.45-17.13s-7.13-16.44-16.17-17.09c-3.05-.22-6.36.36-7.69,1.02l2.8-2.8c1.48-.4,3.61-.5,5.05-.4,10.18.73,18.22,9.07,18.22,19.26s-8.81,19.32-19.66,19.32-19.66-8.64-19.66-19.32c0-6.22,3.1-11.46,7.1-15.48h0s13-13.03,13-13.03l-1.78,5.02-9.65,9.54h0c-3.75,3.77-6.46,8.5-6.46,13.95,0,9.45,7.81,17.13,17.45,17.13Z" style="fill: #4662f5; stroke-width: 0px;"/>
    <path d="M77.92,54.08c7.2,0,13.04-5.77,13.04-12.89s-5.84-12.89-13.04-12.89-13.04,5.77-13.04,12.89,5.84,12.89,13.04,12.89ZM93.16,41.19c0,8.32-6.83,15.07-15.25,15.07s-15.25-6.75-15.25-15.07c0-8.32,6.83-15.07,15.25-15.07s15.25,6.75,15.25,15.07Z" style="fill: #4662f5; fill-rule: evenodd; stroke-width: 0px;"/>
    <path d="M77.92,49.58c4.64,0,8.4-3.72,8.4-8.3s-3.76-8.3-8.4-8.3-8.4,3.72-8.4,8.3,3.76,8.3,8.4,8.3ZM77.92,51.77c5.86,0,10.61-4.69,10.61-10.48s-4.75-10.48-10.61-10.48-10.61,4.69-10.61,10.48,4.75,10.48,10.61,10.48Z" style="fill: #4662f5; fill-rule: evenodd; stroke-width: 0px;"/>
    <path d="M77.92,45.21c2.2,0,3.98-1.76,3.98-3.93s-1.78-3.93-3.98-3.93-3.98,1.76-3.98,3.93,1.78,3.93,3.98,3.93ZM77.92,47.4c3.42,0,6.19-2.74,6.19-6.12s-2.77-6.12-6.19-6.12-6.19,2.74-6.19,6.12,2.77,6.12,6.19,6.12Z" style="fill: #4662f5; fill-rule: evenodd; stroke-width: 0px;"/>
  </g>
</svg>