<svg width="64" height="45" viewBox="0 0 64 45" fill="none" xmlns="http://www.w3.org/2000/svg">
<path d="M22.8827 30.7086C21.3965 30.7086 19.9283 30.1548 18.8003 29.0294L10.0625 20.3116L12.5871 17.7928L21.3249 26.5105C22.1844 27.368 23.5989 27.368 24.4583 26.5105L51.0298 0L53.5544 2.51886L26.9651 29.0472C25.837 30.1727 24.3509 30.7265 22.8827 30.7265V30.7086Z" fill="#4662F5"/>
<path d="M22.8828 37.8369C19.5703 37.8369 16.2758 36.5864 13.7511 34.0676L5.03125 25.3677L7.55589 22.8488L16.2758 31.5487C19.9284 35.193 25.8551 35.193 29.5078 31.5487L60.9136 0.214844L63.4383 2.7337L32.0145 34.0854C29.4899 36.6043 26.1953 37.8548 22.8828 37.8548V37.8369Z" fill="#4662F5"/>
<path d="M22.8829 45.0007C17.7799 45.0007 12.6948 43.0713 8.8094 39.1948L0 30.4056L2.52464 27.8867L11.334 36.6759C17.7083 43.0356 28.0755 43.0356 34.4497 36.6759L55.9719 15.2031L58.4965 17.722L36.9744 39.1948C33.0889 43.0713 28.0039 45.0007 22.9008 45.0007H22.8829Z" fill="#4662F5"/>
</svg>
